<?xml version="1.0" standalone="no"?>
<!DOCTYPE svg PUBLIC "-//W3C//DTD SVG 20010904//EN"
 "http://www.w3.org/TR/2001/REC-SVG-20010904/DTD/svg10.dtd">
<svg version="1.0" xmlns="http://www.w3.org/2000/svg"
 width="1280.000000pt" height="640.000000pt" viewBox="0 0 1280.000000 640.000000"
 preserveAspectRatio="xMidYMid meet">
<metadata>
Created by potrace 1.15, written by Peter Selinger 2001-2017
</metadata>
<g transform="translate(0.000000,640.000000) scale(0.100000,-0.100000)"
fill="#000000" stroke="none">
<path d="M6120 5739 c-1281 -47 -2627 -323 -4000 -820 -135 -49 -290 -106
-345 -128 l-100 -39 -5 -337 -5 -337 -120 -43 c-386 -136 -736 -326 -1068
-578 -171 -130 -417 -348 -417 -369 0 -18 163 -135 299 -215 326 -192 381
-225 381 -230 0 -3 -18 -27 -40 -53 -73 -87 -188 -269 -258 -408 -153 -302
-263 -637 -361 -1102 -45 -212 -81 -414 -75 -419 11 -12 65 37 296 264 234
232 372 353 525 463 311 223 713 416 1109 532 109 32 442 110 468 110 3 0 6
164 6 364 l0 365 198 65 c1139 373 2138 578 3212 658 272 20 1083 17 1335 -5
456 -40 909 -110 1436 -221 532 -113 1078 -260 1617 -437 l182 -60 0 -365 c0
-200 2 -364 4 -364 15 0 225 -47 336 -75 560 -142 1087 -411 1482 -757 45 -40
183 -171 305 -292 122 -121 236 -228 253 -239 l31 -20 -6 39 c-93 527 -195
921 -322 1243 -89 228 -252 517 -372 658 -22 27 -41 52 -41 55 0 9 109 77 295
183 181 104 289 175 351 231 l39 34 -80 76 c-403 383 -863 668 -1400 865
l-130 48 -5 336 -5 337 -100 39 c-303 119 -836 302 -1155 398 -948 283 -1847
455 -2760 526 -175 13 -714 37 -765 33 -11 0 -112 -5 -225 -9z"/>
</g>
</svg>
